<?xml version="1.0" encoding="utf-8"?>
<!-- Generator: Adobe Illustrator 16.0.0, SVG Export Plug-In . SVG Version: 6.00 Build 0)  -->
<!DOCTYPE svg PUBLIC "-//W3C//DTD SVG 1.1//EN" "http://www.w3.org/Graphics/SVG/1.1/DTD/svg11.dtd">
<svg version="1.1" id="Layer_1" xmlns="http://www.w3.org/2000/svg" xmlns:xlink="http://www.w3.org/1999/xlink" x="0px" y="0px"
	 width="800px" height="600px" viewBox="0 0 800 600" enable-background="new 0 0 800 600" xml:space="preserve">
<path stroke="#000000" stroke-miterlimit="10" d="M104.896,244.448c0,28.966-23.482,52.448-52.448,52.448S0,273.415,0,244.448
	S23.482,192,52.448,192S104.896,215.482,104.896,244.448z"/>
<g>
	<path fill="#666666" d="M17.28,266.12c-2.32-0.453-3.96-0.946-4.92-1.48c0-4.373,0.906-6.56,2.72-6.56c0.586,0,1.36,0.134,2.32,0.4
		c1.92,0.534,3.76,0.8,5.52,0.8c2.506,0,4.4-0.72,5.68-2.16c1.28-1.44,1.92-3.546,1.92-6.32V210h10.16v40.8
		c0,3.147-0.708,5.934-2.12,8.36c-1.414,2.427-3.4,4.307-5.96,5.64s-5.494,2-8.8,2C21.772,266.8,19.6,266.572,17.28,266.12z"/>
	<path fill="#666666" d="M94.439,259.52c0.372,1.76,1.066,3.28,2.08,4.56c-0.908,0.694-2.067,1.268-3.48,1.72
		c-1.414,0.453-2.707,0.68-3.88,0.68c-2.56,0-4.107-2.106-4.64-6.32c-2.934,4.427-7.494,6.64-13.68,6.64
		c-3.948,0-7.134-1.052-9.56-3.16c-2.428-2.106-3.64-4.866-3.64-8.28c0-4.853,2.16-8.546,6.48-11.08
		c4.32-2.532,11.013-4.04,20.08-4.52v-3.6c0-5.227-2.748-7.84-8.24-7.84c-1.974,0-3.84,0.388-5.6,1.16
		c-1.76,0.774-3.84,2.094-6.24,3.96c-0.374,0.268-0.748,0.4-1.12,0.4c-0.854,0-1.76-0.492-2.72-1.48
		c-0.96-0.986-1.814-2.333-2.56-4.04c2.186-2.132,5.04-3.853,8.56-5.16c3.52-1.307,7.092-1.96,10.72-1.96
		c5.386,0,9.547,1.307,12.48,3.92c2.933,2.614,4.399,6.293,4.399,11.04v15.12C93.879,255.014,94.065,257.76,94.439,259.52z
		 M84.199,252.48v-7.2c-11.094,0.48-16.64,3.548-16.64,9.2c0,1.814,0.533,3.214,1.6,4.2c1.066,0.987,2.586,1.48,4.56,1.48
		C77.826,260.16,81.319,257.6,84.199,252.48z"/>
	<path fill="#666666" d="M115.519,260.92c-3.654-3.92-5.48-9.64-5.48-17.16c0-6.986,1.866-12.492,5.601-16.52
		c3.732-4.026,8.853-6.04,15.359-6.04c5.173,0,9.4,1.267,12.681,3.8c3.279,2.534,5.212,6.014,5.8,10.44
		c-2.454,1.44-4.588,2.16-6.4,2.16c-0.747,0-1.348-0.227-1.8-0.68c-0.454-0.453-0.867-1.24-1.24-2.36
		c-0.693-2.292-1.773-3.986-3.239-5.08c-1.468-1.092-3.4-1.64-5.801-1.64c-3.467,0-6.174,1.4-8.119,4.2
		c-1.948,2.8-2.921,6.708-2.921,11.72c0,5.334,1,9.374,3,12.12c2,2.748,4.893,4.12,8.681,4.12c2.772,0,5.026-0.813,6.76-2.44
		c1.732-1.626,3.026-4.172,3.88-7.64c2.187,0,3.8,0.468,4.84,1.4c1.04,0.934,1.561,2.334,1.561,4.2c0,1.974-0.788,3.828-2.36,5.56
		c-1.573,1.734-3.667,3.12-6.28,4.16c-2.613,1.04-5.413,1.56-8.399,1.56C124.545,266.8,119.171,264.84,115.519,260.92z"/>
	<path fill="#666666" d="M168.598,260.88c-3.413-3.946-5.12-9.6-5.12-16.96s1.707-12.986,5.12-16.88
		c3.413-3.893,8.32-5.84,14.721-5.84c6.399,0,11.292,1.947,14.68,5.84c3.386,3.894,5.08,9.52,5.08,16.88
		c0,7.414-1.708,13.08-5.12,17c-3.414,3.92-8.294,5.88-14.64,5.88C176.918,266.8,172.011,264.828,168.598,260.88z M190.878,256.28
		c1.572-2.586,2.36-6.706,2.36-12.36c0-5.6-0.788-9.68-2.36-12.24c-1.574-2.56-4.094-3.84-7.56-3.84c-3.468,0-5.988,1.268-7.561,3.8
		c-1.573,2.534-2.36,6.627-2.36,12.28c0,5.708,0.787,9.84,2.36,12.4c1.572,2.56,4.093,3.84,7.561,3.84
		C186.784,260.16,189.304,258.868,190.878,256.28z"/>
	<path fill="#666666" d="M254.477,226.84c3.013,3.76,4.521,9.268,4.521,16.52c0,4.694-0.84,8.8-2.521,12.32
		c-1.68,3.52-4.067,6.253-7.16,8.2c-3.094,1.948-6.667,2.92-10.72,2.92c-2.934,0-6.054-0.56-9.36-1.68V284h-9.68v-45.84
		c0-4.106-0.147-7.227-0.439-9.36c-0.294-2.132-0.841-3.76-1.641-4.88c1.28-0.692,2.601-1.24,3.96-1.64
		c1.36-0.4,2.601-0.6,3.721-0.6c1.012,0,1.826,0.374,2.439,1.12c0.612,0.748,1.053,1.92,1.32,3.52
		c3.252-3.412,7.386-5.12,12.399-5.12C247.077,221.2,251.463,223.08,254.477,226.84z M246.077,255.84c2-2.88,3-7.04,3-12.48
		c0-5.333-0.774-9.28-2.32-11.84c-1.548-2.56-3.947-3.84-7.2-3.84c-1.974,0-3.88,0.454-5.72,1.36c-1.84,0.907-3.374,2.107-4.601,3.6
		v25.76c2.507,1.174,5.253,1.76,8.24,1.76C241.209,260.16,244.077,258.72,246.077,255.84z"/>
	<path fill="#666666" d="M277.315,260.88c-3.413-3.946-5.12-9.6-5.12-16.96s1.707-12.986,5.12-16.88
		c3.413-3.893,8.32-5.84,14.721-5.84c6.399,0,11.292,1.947,14.68,5.84c3.386,3.894,5.08,9.52,5.08,16.88
		c0,7.414-1.708,13.08-5.12,17c-3.414,3.92-8.294,5.88-14.64,5.88C285.636,266.8,280.729,264.828,277.315,260.88z M299.596,256.28
		c1.572-2.586,2.36-6.706,2.36-12.36c0-5.6-0.788-9.68-2.36-12.24c-1.574-2.56-4.094-3.84-7.56-3.84c-3.468,0-5.988,1.268-7.561,3.8
		c-1.573,2.534-2.36,6.627-2.36,12.28c0,5.708,0.787,9.84,2.36,12.4c1.572,2.56,4.093,3.84,7.561,3.84
		C295.502,260.16,298.021,258.868,299.596,256.28z"/>
</g>
<g>
	<path fill="#BD0909" d="M390.32,266c-0.107-9.652-0.428-17.88-0.96-24.68c-0.534-6.801-1.388-13.48-2.561-20.04
		c-2.08,5.493-3.867,10.667-5.359,15.52c-1.494,4.854-3.494,12-6,21.44h-7.92c-2.188-8.641-4.04-15.507-5.56-20.601
		c-1.52-5.092-3.374-10.546-5.56-16.359c-1.12,6.56-1.96,13.254-2.52,20.08c-0.56,6.827-0.947,15.04-1.16,24.64h-10
		c0.212-11.307,0.866-21.4,1.96-30.28c1.092-8.88,2.786-17.452,5.08-25.72h11.28c2.826,6.88,4.946,12.44,6.36,16.68
		c1.413,4.24,2.76,9,4.04,14.28c1.333-5.173,2.733-9.853,4.2-14.04c1.467-4.187,3.641-9.826,6.521-16.92h11.28
		c2.399,8.32,4.159,16.934,5.279,25.84c1.12,8.907,1.732,18.96,1.84,30.16H390.32z"/>
	<path fill="#BD0909" d="M418.879,208.56v-1.04c0-3.572,1.786-5.359,5.36-5.359h0.96c3.572,0,5.36,1.787,5.36,5.359v1.04
		c0,3.574-1.788,5.36-5.36,5.36h-0.96C420.665,213.92,418.879,212.134,418.879,208.56z M419.839,222h9.761v44h-9.761V222z"/>
	<path fill="#BD0909" d="M489.6,219.84c0.64,1.174,0.933,3.174,0.88,6c-3.788,0-6.48,0.454-8.08,1.36
		c1.92,2.507,2.88,5.413,2.88,8.72c0,5.014-1.588,8.827-4.76,11.44c-3.174,2.613-7.828,3.92-13.96,3.92c-2.88,0-4.908,0.2-6.08,0.6
		c-1.174,0.4-1.76,1.107-1.76,2.12c0,1.014,0.706,1.707,2.119,2.08c1.413,0.374,4.12,0.56,8.12,0.56c6.24,0,11.053,1.067,14.44,3.2
		c3.386,2.134,5.08,5.147,5.08,9.04c0,4.213-1.88,7.521-5.641,9.92c-3.76,2.4-8.92,3.601-15.479,3.601
		c-6.508,0-11.494-1.028-14.96-3.08c-3.468-2.054-5.2-4.974-5.2-8.761c0-2.399,0.84-4.347,2.521-5.84
		c1.68-1.492,4.146-2.506,7.399-3.04v-0.239c-2.027-0.427-3.6-1.187-4.72-2.28c-1.12-1.093-1.68-2.44-1.68-4.04
		c0-1.387,0.572-2.612,1.72-3.68c1.146-1.066,2.68-1.841,4.6-2.32c-2.507-1.333-4.479-3.066-5.92-5.2
		c-1.439-2.133-2.16-4.479-2.16-7.04c0-5.066,1.641-8.946,4.92-11.64c3.28-2.692,8.013-4.04,14.2-4.04c3.36,0,6.347,0.613,8.96,1.84
		c1.28-1.492,2.746-2.692,4.4-3.6c1.652-0.906,3.2-1.36,4.64-1.36C487.785,218.08,488.959,218.668,489.6,219.84z M457.119,269.36
		c0,2.186,0.84,3.813,2.521,4.88c1.68,1.066,4.252,1.6,7.72,1.6c3.786,0,6.68-0.547,8.68-1.64c2-1.094,3-2.708,3-4.84
		c0-2.134-0.92-3.692-2.76-4.681c-1.84-0.986-4.708-1.479-8.6-1.479C460.64,263.2,457.119,265.254,457.119,269.36z M473.359,242.64
		c1.332-1.332,2-3.466,2-6.399c0-2.986-0.668-5.16-2-6.521c-1.334-1.359-3.44-2.04-6.32-2.04c-2.827,0-4.907,0.694-6.24,2.08
		c-1.333,1.388-2,3.548-2,6.48c0,2.827,0.681,4.934,2.04,6.319c1.36,1.388,3.427,2.08,6.2,2.08
		C469.919,244.64,472.025,243.974,473.359,242.64z"/>
	<path fill="#BD0909" d="M504.879,202.72h9.76V266h-9.76V202.72z"/>
	<path fill="#BD0909" d="M534.157,208.56v-1.04c0-3.572,1.786-5.359,5.36-5.359h0.96c3.572,0,5.36,1.787,5.36,5.359v1.04
		c0,3.574-1.788,5.36-5.36,5.36h-0.96C535.943,213.92,534.157,212.134,534.157,208.56z M535.117,222h9.761v44h-9.761V222z"/>
	<path fill="#BD0909" d="M567.277,260.88c-3.413-3.946-5.12-9.6-5.12-16.96s1.707-12.986,5.12-16.88
		c3.413-3.893,8.32-5.84,14.721-5.84c6.399,0,11.292,1.947,14.68,5.84c3.386,3.894,5.08,9.52,5.08,16.88
		c0,7.414-1.708,13.08-5.12,17c-3.414,3.92-8.294,5.88-14.64,5.88C575.598,266.8,570.69,264.827,567.277,260.88z M589.558,256.28
		c1.572-2.587,2.36-6.706,2.36-12.36c0-5.6-0.788-9.68-2.36-12.24c-1.574-2.56-4.094-3.84-7.56-3.84c-3.468,0-5.988,1.268-7.561,3.8
		c-1.573,2.534-2.36,6.628-2.36,12.28c0,5.708,0.787,9.84,2.36,12.4c1.572,2.56,4.093,3.84,7.561,3.84
		C585.464,260.16,587.983,258.867,589.558,256.28z"/>
	<path fill="#BD0909" d="M643.637,222.88c1.092,0.96,1.64,2.428,1.64,4.4c0,0.747-0.107,1.479-0.32,2.2
		c-0.213,0.72-0.507,1.293-0.88,1.72c-0.587-0.373-1.293-0.641-2.12-0.8c-0.827-0.16-1.934-0.24-3.319-0.24
		c-3.468,0-6.134,1.188-8,3.56c-1.868,2.374-2.8,5.774-2.8,10.2V266h-9.681v-44h9.681v6.56c1.119-2.239,2.612-3.985,4.479-5.239
		c1.866-1.253,3.92-1.88,6.16-1.88C640.822,221.44,642.543,221.92,643.637,222.88z"/>
	<path fill="#BD0909" d="M697.436,245.6h-29.439c0.266,4.588,1.332,8.134,3.199,10.641c1.866,2.507,4.4,3.76,7.601,3.76
		c2.186,0,3.986-0.44,5.399-1.32s3.026-2.6,4.841-5.16c0.319-0.479,0.88-0.72,1.68-0.72c1.492,0,3.546,0.934,6.16,2.8
		c-1.494,3.628-3.801,6.4-6.92,8.32c-3.12,1.92-6.841,2.88-11.16,2.88c-6.454,0-11.534-2.04-15.24-6.12
		c-3.707-4.08-5.56-9.666-5.56-16.76c0-7.04,1.866-12.586,5.6-16.64c3.732-4.053,8.853-6.08,15.36-6.08
		c5.972,0,10.6,1.733,13.88,5.2c3.279,3.467,4.92,8.347,4.92,14.64C697.756,241.947,697.648,243.468,697.436,245.6z M687.916,239.68
		c0-7.946-3.067-11.92-9.2-11.92c-3.04,0-5.454,1-7.24,3c-1.787,2-2.894,4.974-3.32,8.92H687.916z"/>
	<path fill="#BD0909" d="M714.235,202.72h9.76V266h-9.76V202.72z"/>
	<path fill="#BD0909" d="M743.674,202.72h9.76V266h-9.76V202.72z"/>
	<path fill="#BD0909" d="M772.953,208.56v-1.04c0-3.572,1.786-5.359,5.36-5.359h0.96c3.572,0,5.36,1.787,5.36,5.359v1.04
		c0,3.574-1.788,5.36-5.36,5.36h-0.96C774.739,213.92,772.953,212.134,772.953,208.56z M773.913,222h9.761v44h-9.761V222z"/>
</g>
</svg>
